<?xml version="1.0" encoding="UTF-8" standalone="no"?>
<!-- Created with Inkscape (http://www.inkscape.org/) -->

<svg
   xmlns:osb="http://www.openswatchbook.org/uri/2009/osb"
   xmlns:dc="http://purl.org/dc/elements/1.1/"
   xmlns:cc="http://creativecommons.org/ns#"
   xmlns:rdf="http://www.w3.org/1999/02/22-rdf-syntax-ns#"
   xmlns:svg="http://www.w3.org/2000/svg"
   xmlns="http://www.w3.org/2000/svg"
   xmlns:sodipodi="http://sodipodi.sourceforge.net/DTD/sodipodi-0.dtd"
   xmlns:inkscape="http://www.inkscape.org/namespaces/inkscape"
   sodipodi:docname="audacity-symbolic.svg"
   height="17.0666666667"
   id="svg7384"
   version="1.1"
   inkscape:version="0.92.3 (2405546, 2018-03-11)"
   width="17.0666666667">
  <sodipodi:namedview
     inkscape:bbox-paths="true"
     bordercolor="#666666"
     borderopacity="1"
     inkscape:current-layer="svg7384"
     inkscape:cx="0.098583634"
     inkscape:cy="1.7372586"
     gridtolerance="10"
     inkscape:guide-bbox="true"
     guidetolerance="10"
     id="namedview88"
     inkscape:object-nodes="false"
     inkscape:object-paths="false"
     objecttolerance="10"
     pagecolor="#555753"
     inkscape:pageopacity="1"
     inkscape:pageshadow="2"
     showborder="false"
     showgrid="false"
     showguides="true"
     inkscape:snap-bbox="true"
     inkscape:snap-bbox-midpoints="false"
     inkscape:snap-global="true"
     inkscape:snap-grids="true"
     inkscape:snap-nodes="true"
     inkscape:snap-others="false"
     inkscape:snap-to-guides="true"
     inkscape:window-height="873"
     inkscape:window-maximized="1"
     inkscape:window-width="1600"
     inkscape:window-x="0"
     inkscape:window-y="27"
     inkscape:zoom="19.892115"
     inkscape:document-rotation="0"
     inkscape:document-units="px">
    <inkscape:grid
       visible="true"
       type="xygrid"
       spacingy="1.0666667"
       spacingx="1.0666667"
       snapvisiblegridlinesonly="true"
       originy="-407.46509"
       originx="-236.80001"
       id="grid4866"
       enabled="true"
       empspacing="2" />
  </sodipodi:namedview>
  <metadata
     id="metadata90">
    <rdf:RDF>
      <cc:Work
         rdf:about="">
        <dc:format>image/svg+xml</dc:format>
        <dc:type
           rdf:resource="http://purl.org/dc/dcmitype/StillImage" />
        <dc:title>Gnome Symbolic Icon Theme</dc:title>
      </cc:Work>
    </rdf:RDF>
  </metadata>
  <title
     id="title9167">Gnome Symbolic Icon Theme</title>
  <defs
     id="defs7386">
    <linearGradient
       osb:paint="solid"
       id="linearGradient7212">
      <stop
         style="stop-color:#000000;stop-opacity:1;"
         offset="0"
         id="stop7214" />
    </linearGradient>
    <clipPath
       id="clipPath3126">
      <path
         inkscape:connector-curvature="0"
         d="m 30,94 2,2 3,10 1,-12 3,15 V 90 l 2,5 3,14 V 90 l 2,2 3,17 3,-23 6.615678,25.91971 L 59,96 l 2,-6 2,25 6,-25 2,21 5,-22 5,24 1,-18 3,-6 1,23 5,-22 3,10 1,-9 3,6 V 78 L 95,86 94,69 92,82 90,78 89,64 84,83 83,79 80,49 77,75 75,83 71,56 67,79 65,85 64,43.695313 58,90 52,48 49,84 47,80 45,56 44,80 41,87 39,63 37,82 34,77 V 91 L 30,76 Z"
         id="path3128"
         style="fill:none;stroke:#000000;stroke-width:1px;stroke-linecap:butt;stroke-linejoin:miter;stroke-opacity:1" />
    </clipPath>
    <filter
       style="color-interpolation-filters:sRGB"
       id="filter3326">
      <feGaussianBlur
         id="feGaussianBlur3328"
         stdDeviation="0.35326172" />
    </filter>
    <filter
       style="color-interpolation-filters:sRGB"
       id="filter3282">
      <feGaussianBlur
         id="feGaussianBlur3284"
         stdDeviation="1.3375" />
    </filter>
  </defs>
  <g
     transform="matrix(1.066667,0,0,1.066667,-493.86689,175.99842)"
     style="display:inline"
     inkscape:label="apps"
     id="layer9"
     inkscape:groupmode="layer">
    <g
       id="g867"
       style="fill:#bebebe;fill-opacity:1"
       transform="translate(22.516278,0.8134874)">
      <g
         transform="matrix(0.13630316,0,0,0.13630316,439.76086,-166.12055)"
         clip-path="url(#clipPath3126)"
         id="g3122"
         style="display:inline;fill:#bebebe;fill-opacity:1;filter:url(#filter3326)">
        <path
           d="M 28,116 V 43 h 72 v 73 z"
           id="path3120"
           style="fill:#bebebe;fill-opacity:1;fill-rule:evenodd;stroke:none"
           inkscape:connector-curvature="0" />
        <path
           d="m 29,80 8,5 3,-9 5,6 6,-10 2,12 2,-8 3,6 1,-6 c 0,0 3,8 3,7 0,-1 4,-15 4,-15 l 4,13 6,-12 3,13 5,-9 3,9 5,-5 6,6 v 8 l -4,3 -6,-2 -4,-2 -1,10 -2,-10 -4,9 -6,-9 -2,9 -4,-6 -5,13 -3,-15 -6,3 -4,-6 -2,10 -4,-5 -4,5 -2,-3 -6,1 z"
           id="path3118"
           style="fill:#bebebe;fill-opacity:1;fill-rule:evenodd;stroke:none;filter:url(#filter3282)"
           inkscape:connector-curvature="0" />
      </g>
      <path
         d="m 448.48427,-165.18347 c -1.8078,0 -3.45647,0.5644 -4.67265,1.51211 -1.21618,0.94772 -2.00621,2.30372 -2.00621,3.81223 v 0.54521 c -1.20748,0.6118 -2.04455,2.21664 -2.04455,4.09762 0,2.40766 1.36977,4.3617 3.13497,4.3617 v -9.00453 c 0,-1.12969 0.58472,-2.16939 1.58878,-2.95182 1.00407,-0.78241 2.42189,-1.28209 3.99966,-1.28209 1.57776,0 2.99558,0.49968 3.99964,1.28209 1.00406,0.78243 1.58878,1.82213 1.58878,2.95182 v 9.00453 c 1.76521,0 3.13497,-1.95404 3.13497,-4.3617 0,-1.88098 -0.83706,-3.48582 -2.04454,-4.09762 v -0.54521 c 0,-1.50851 -0.79004,-2.86451 -2.00622,-3.81223 -1.21617,-0.94771 -2.86484,-1.51211 -4.67263,-1.51211 z m -5.17953,5.74177 v 8.5871 c 0.27261,0 0.54522,-0.1363 0.68152,-0.40891 v -7.90558 c -0.1363,-0.1363 -0.40891,-0.27261 -0.68152,-0.27261 z m 10.35904,0 c -0.27261,0 -0.54521,0.13631 -0.68151,0.27261 v 7.90558 c 0.1363,0.27261 0.4089,0.40891 0.68151,0.40891 z"
         id="path2127"
         style="display:inline;overflow:visible;visibility:visible;fill:#bebebe;fill-opacity:1;fill-rule:nonzero;stroke:none;stroke-width:2.58839726;marker:none;enable-background:accumulate"
         inkscape:connector-curvature="0" />
    </g>
  </g>
</svg>
