<?xml version="1.0" encoding="UTF-8" standalone="no"?>
<!-- Created with Inkscape (http://www.inkscape.org/) -->

<svg
   xmlns:osb="http://www.openswatchbook.org/uri/2009/osb"
   xmlns:dc="http://purl.org/dc/elements/1.1/"
   xmlns:cc="http://creativecommons.org/ns#"
   xmlns:rdf="http://www.w3.org/1999/02/22-rdf-syntax-ns#"
   xmlns:svg="http://www.w3.org/2000/svg"
   xmlns="http://www.w3.org/2000/svg"
   xmlns:sodipodi="http://sodipodi.sourceforge.net/DTD/sodipodi-0.dtd"
   xmlns:inkscape="http://www.inkscape.org/namespaces/inkscape"
   sodipodi:docname="bitwig-studio-symbolic.svg"
   height="16"
   id="svg7384"
   version="1.1"
   inkscape:version="0.92.3 (2405546, 2018-03-11)"
   width="16">
  <metadata
     id="metadata90">
    <rdf:RDF>
      <cc:Work
         rdf:about="">
        <dc:format>image/svg+xml</dc:format>
        <dc:type
           rdf:resource="http://purl.org/dc/dcmitype/StillImage" />
        <dc:title>Gnome Symbolic Icon Theme</dc:title>
      </cc:Work>
    </rdf:RDF>
  </metadata>
  <sodipodi:namedview
     inkscape:bbox-paths="true"
     bordercolor="#666666"
     borderopacity="1"
     inkscape:current-layer="layer9"
     inkscape:cx="1.7290796"
     inkscape:cy="2.8154845"
     gridtolerance="10"
     inkscape:guide-bbox="true"
     guidetolerance="10"
     id="namedview88"
     inkscape:object-nodes="false"
     inkscape:object-paths="false"
     objecttolerance="10"
     pagecolor="#555753"
     inkscape:pageopacity="1"
     inkscape:pageshadow="2"
     showborder="false"
     showgrid="false"
     showguides="true"
     inkscape:snap-bbox="true"
     inkscape:snap-bbox-midpoints="false"
     inkscape:snap-global="true"
     inkscape:snap-grids="true"
     inkscape:snap-nodes="true"
     inkscape:snap-others="false"
     inkscape:snap-to-guides="true"
     inkscape:window-height="1873"
     inkscape:window-maximized="1"
     inkscape:window-width="3000"
     inkscape:window-x="0"
     inkscape:window-y="55"
     inkscape:zoom="32">
    <inkscape:grid
       empspacing="2"
       enabled="true"
       id="grid4866"
       originx="-222.00001"
       originy="-381.99852"
       snapvisiblegridlinesonly="true"
       spacingx="1"
       spacingy="1"
       type="xygrid"
       visible="true" />
  </sodipodi:namedview>
  <title
     id="title9167">Gnome Symbolic Icon Theme</title>
  <defs
     id="defs7386">
    <linearGradient
       id="linearGradient7212"
       osb:paint="solid">
      <stop
         id="stop7214"
         offset="0"
         style="stop-color:#000000;stop-opacity:1;" />
    </linearGradient>
  </defs>
  <g
     inkscape:groupmode="layer"
     id="layer9"
     inkscape:label="apps"
     style="display:inline"
     transform="translate(-463.00021,164.99852)">
    <path
       inkscape:connector-curvature="0"
       style="fill:#bebebe;fill-opacity:1;fill-rule:evenodd;stroke:none;stroke-width:0.02770996"
       d="m 470.93204,-164.09064 c -3.91791,0 -7.09363,3.17584 -7.09363,7.09369 0,3.91783 3.17572,7.09386 7.09363,7.09386 3.918,0 7.09387,-3.17603 7.09387,-7.09386 0,-3.91785 -3.17587,-7.09369 -7.09387,-7.09369 z m -1.7895,5.35928 c 0.25083,0 0.45467,0.20397 0.45467,0.45472 0,0.25081 -0.20384,0.45488 -0.45467,0.45488 -0.25072,0 -0.45473,-0.20407 -0.45473,-0.45488 0,-0.25075 0.20401,-0.45472 0.45473,-0.45472 z m 1.18633,0 c 0.25083,0 0.45483,0.20397 0.45483,0.45472 0,0.25081 -0.204,0.45488 -0.45483,0.45488 -0.25075,0 -0.45488,-0.20407 -0.45488,-0.45488 0,-0.25075 0.20413,-0.45472 0.45488,-0.45472 z m 1.20587,0 c 0.25066,0 0.45441,0.20397 0.45441,0.45472 0,0.25081 -0.20375,0.45488 -0.45441,0.45488 -0.25106,0 -0.455,-0.20407 -0.455,-0.45488 0,-0.25075 0.20394,-0.45472 0.455,-0.45472 z m 1.18612,0 c 0.25082,0 0.45488,0.20397 0.45488,0.45472 0,0.25081 -0.20406,0.45488 -0.45488,0.45488 -0.25081,0 -0.45462,-0.20407 -0.45462,-0.45488 0,-0.25075 0.20381,-0.45472 0.45462,-0.45472 z m -4.76439,1.20566 c 0.25058,0 0.45441,0.20413 0.45441,0.45493 0,0.25075 -0.20383,0.45479 -0.45441,0.45479 -0.25099,0 -0.45499,-0.20404 -0.45499,-0.45479 0,-0.2508 0.204,-0.45493 0.45499,-0.45493 z m 1.18607,0 c 0.25083,0 0.45467,0.20413 0.45467,0.45493 0,0.25075 -0.20384,0.45479 -0.45467,0.45479 -0.25072,0 -0.45473,-0.20404 -0.45473,-0.45479 0,-0.2508 0.20401,-0.45493 0.45473,-0.45493 z m 1.18633,0 c 0.25083,0 0.45483,0.20413 0.45483,0.45493 0,0.25075 -0.204,0.45479 -0.45483,0.45479 -0.25075,0 -0.45488,-0.20404 -0.45488,-0.45479 0,-0.2508 0.20413,-0.45493 0.45488,-0.45493 z m 1.20587,0 c 0.25066,0 0.45441,0.20413 0.45441,0.45493 0,0.25075 -0.20375,0.45479 -0.45441,0.45479 -0.25106,0 -0.455,-0.20404 -0.455,-0.45479 0,-0.2508 0.20394,-0.45493 0.455,-0.45493 z m 1.18612,0 c 0.25082,0 0.45488,0.20413 0.45488,0.45493 0,0.25075 -0.20406,0.45479 -0.45488,0.45479 -0.25081,0 -0.45462,-0.20404 -0.45462,-0.45479 0,-0.2508 0.20381,-0.45493 0.45462,-0.45493 z m 1.18643,0 c 0.25072,0 0.45462,0.20413 0.45462,0.45493 0,0.25075 -0.2039,0.45479 -0.45462,0.45479 -0.25099,0 -0.45498,-0.20404 -0.45498,-0.45479 0,-0.2508 0.20399,-0.45493 0.45498,-0.45493 z m -5.95082,1.20575 c 0.25058,0 0.45441,0.20401 0.45441,0.45478 0,0.25089 -0.20383,0.45505 -0.45441,0.45505 -0.25099,0 -0.45499,-0.20416 -0.45499,-0.45505 0,-0.25077 0.204,-0.45478 0.45499,-0.45478 z m 1.18607,0 c 0.25083,0 0.45467,0.20401 0.45467,0.45478 0,0.25089 -0.20384,0.45505 -0.45467,0.45505 -0.25072,0 -0.45473,-0.20416 -0.45473,-0.45505 0,-0.25077 0.20401,-0.45478 0.45473,-0.45478 z m 3.57832,0 c 0.25082,0 0.45488,0.20401 0.45488,0.45478 0,0.25089 -0.20406,0.45505 -0.45488,0.45505 -0.25081,0 -0.45462,-0.20416 -0.45462,-0.45505 0,-0.25077 0.20381,-0.45478 0.45462,-0.45478 z m 1.18643,0 c 0.25072,0 0.45462,0.20401 0.45462,0.45478 0,0.25089 -0.2039,0.45505 -0.45462,0.45505 -0.25099,0 -0.45498,-0.20416 -0.45498,-0.45505 0,-0.25077 0.20399,-0.45478 0.45498,-0.45478 z"
       id="Fill-1" />
  </g>
</svg>
