<?xml version="1.0" encoding="UTF-8" standalone="no"?>
<!-- Created with Inkscape (http://www.inkscape.org/) -->

<svg
   xmlns:osb="http://www.openswatchbook.org/uri/2009/osb"
   xmlns:dc="http://purl.org/dc/elements/1.1/"
   xmlns:cc="http://creativecommons.org/ns#"
   xmlns:rdf="http://www.w3.org/1999/02/22-rdf-syntax-ns#"
   xmlns:svg="http://www.w3.org/2000/svg"
   xmlns="http://www.w3.org/2000/svg"
   xmlns:sodipodi="http://sodipodi.sourceforge.net/DTD/sodipodi-0.dtd"
   xmlns:inkscape="http://www.inkscape.org/namespaces/inkscape"
   sodipodi:docname="bitwig-studio-symbolic.svg"
   height="16"
   id="svg7384"
   version="1.1"
   inkscape:version="0.92.5 (2060ec1f9f, 2020-04-08)"
   width="16">
  <metadata
     id="metadata90">
    <rdf:RDF>
      <cc:Work
         rdf:about="">
        <dc:format>image/svg+xml</dc:format>
        <dc:type
           rdf:resource="http://purl.org/dc/dcmitype/StillImage" />
        <dc:title>Gnome Symbolic Icon Theme</dc:title>
      </cc:Work>
    </rdf:RDF>
  </metadata>
  <sodipodi:namedview
     inkscape:bbox-paths="true"
     bordercolor="#666666"
     borderopacity="1"
     inkscape:current-layer="layer9"
     inkscape:cx="9.1383246"
     inkscape:cy="4.8263173"
     gridtolerance="10"
     inkscape:guide-bbox="true"
     guidetolerance="10"
     id="namedview88"
     inkscape:object-nodes="false"
     inkscape:object-paths="false"
     objecttolerance="10"
     pagecolor="#555753"
     inkscape:pageopacity="1"
     inkscape:pageshadow="2"
     showborder="false"
     showgrid="false"
     showguides="true"
     inkscape:snap-bbox="true"
     inkscape:snap-bbox-midpoints="false"
     inkscape:snap-global="true"
     inkscape:snap-grids="true"
     inkscape:snap-nodes="true"
     inkscape:snap-others="false"
     inkscape:snap-to-guides="true"
     inkscape:window-height="1872"
     inkscape:window-maximized="1"
     inkscape:window-width="3000"
     inkscape:window-x="0"
     inkscape:window-y="54"
     inkscape:zoom="64">
    <inkscape:grid
       empspacing="2"
       enabled="true"
       id="grid4866"
       originx="-222.00001"
       originy="-381.99852"
       snapvisiblegridlinesonly="true"
       spacingx="1"
       spacingy="1"
       type="xygrid"
       visible="true" />
  </sodipodi:namedview>
  <title
     id="title9167">Gnome Symbolic Icon Theme</title>
  <defs
     id="defs7386">
    <linearGradient
       id="linearGradient7212"
       osb:paint="solid">
      <stop
         id="stop7214"
         offset="0"
         style="stop-color:#000000;stop-opacity:1;" />
    </linearGradient>
    <linearGradient
       id="_Linear1"
       x1="0"
       y1="0"
       x2="1"
       y2="0"
       gradientUnits="userSpaceOnUse"
       gradientTransform="matrix(-8.79594e-6,13.047311,-13.047399,-8.7959986e-6,7.98833,1.02706)">
      <stop
         offset="0"
         style="stop-color:#fc6d29;stop-opacity:1"
         id="stop18" />
      <stop
         offset="1"
         style="stop-color:#cc541b;stop-opacity:1"
         id="stop20" />
    </linearGradient>
  </defs>
  <g
     inkscape:groupmode="layer"
     id="layer9"
     inkscape:label="apps"
     style="display:inline"
     transform="translate(-463.00021,164.99852)">
    <path
       style="clip-rule:evenodd;fill:#bebebe;fill-rule:evenodd;stroke-width:0.0293198;stroke-linejoin:round;stroke-miterlimit:1.41420996;fill-opacity:1"
       d="M 7.9882812 0.5 C 3.8427512 0.5 0.48242188 3.8603894 0.48242188 8.0058594 C 0.48242188 12.151299 3.8427513 15.511719 7.9882812 15.511719 C 12.133901 15.511719 15.494141 12.151299 15.494141 8.0058594 C 15.494141 3.8603894 12.133901 0.5 7.9882812 0.5 z M 5.421875 5.5449219 C 5.781595 5.5449219 6.0742188 5.8376356 6.0742188 6.1972656 C 6.0742188 6.5569656 5.781595 6.8496094 5.421875 6.8496094 C 5.062295 6.8496094 4.7695313 6.5569656 4.7695312 6.1972656 C 4.7695312 5.8376356 5.062295 5.5449219 5.421875 5.5449219 z M 7.1230469 5.5449219 C 7.4827669 5.5449219 7.7753906 5.8376356 7.7753906 6.1972656 C 7.7753906 6.5569656 7.4827669 6.8496094 7.1230469 6.8496094 C 6.7634069 6.8496094 6.4707031 6.5569656 6.4707031 6.1972656 C 6.4707031 5.8376356 6.7634069 5.5449219 7.1230469 5.5449219 z M 8.8535156 5.5449219 C 9.2130056 5.5449219 9.5039062 5.8376356 9.5039062 6.1972656 C 9.5039062 6.5569656 9.2130056 6.8496094 8.8535156 6.8496094 C 8.4934656 6.8496094 8.1992186 6.5569656 8.1992188 6.1972656 C 8.1992188 5.8376356 8.4934656 5.5449219 8.8535156 5.5449219 z M 10.554688 5.5449219 C 10.914445 5.5449219 11.207031 5.8376356 11.207031 6.1972656 C 11.207031 6.5569656 10.914445 6.8496094 10.554688 6.8496094 C 10.194997 6.8496094 9.9023438 6.5569656 9.9023438 6.1972656 C 9.9023438 5.8376356 10.194997 5.5449219 10.554688 5.5449219 z M 3.7207031 7.2753906 C 4.0801031 7.2753906 4.3730469 7.5680444 4.3730469 7.9277344 C 4.3730469 8.2873444 4.0801031 8.5800781 3.7207031 8.5800781 C 3.3607431 8.5800781 3.0683594 8.2873444 3.0683594 7.9277344 C 3.0683594 7.5680444 3.3607431 7.2753906 3.7207031 7.2753906 z M 5.421875 7.2753906 C 5.781595 7.2753906 6.0742188 7.5680444 6.0742188 7.9277344 C 6.0742188 8.2873444 5.781595 8.5800781 5.421875 8.5800781 C 5.062295 8.5800781 4.7695313 8.2873444 4.7695312 7.9277344 C 4.7695312 7.5680444 5.062295 7.2753906 5.421875 7.2753906 z M 7.1230469 7.2753906 C 7.4827669 7.2753906 7.7753906 7.5680444 7.7753906 7.9277344 C 7.7753906 8.2873444 7.4827669 8.5800781 7.1230469 8.5800781 C 6.7634069 8.5800781 6.4707031 8.2873444 6.4707031 7.9277344 C 6.4707031 7.5680444 6.7634069 7.2753906 7.1230469 7.2753906 z M 8.8535156 7.2753906 C 9.2130056 7.2753906 9.5039062 7.5680444 9.5039062 7.9277344 C 9.5039062 8.2873444 9.2130056 8.5800781 8.8535156 8.5800781 C 8.4934656 8.5800781 8.1992186 8.2873444 8.1992188 7.9277344 C 8.1992188 7.5680444 8.4934656 7.2753906 8.8535156 7.2753906 z M 10.554688 7.2753906 C 10.914445 7.2753906 11.207031 7.5680444 11.207031 7.9277344 C 11.207031 8.2873444 10.914445 8.5800781 10.554688 8.5800781 C 10.194997 8.5800781 9.9023438 8.2873444 9.9023438 7.9277344 C 9.9023438 7.5680444 10.194997 7.2753906 10.554688 7.2753906 z M 12.255859 7.2753906 C 12.615429 7.2753906 12.908203 7.5680444 12.908203 7.9277344 C 12.908203 8.2873444 12.615429 8.5800781 12.255859 8.5800781 C 11.895899 8.5800781 11.603516 8.2873444 11.603516 7.9277344 C 11.603516 7.5680444 11.895899 7.2753906 12.255859 7.2753906 z M 3.7207031 9.0039062 C 4.0801031 9.0039062 4.3730469 9.29658 4.3730469 9.65625 C 4.3730469 10.01606 4.0801031 10.308594 3.7207031 10.308594 C 3.3607431 10.308594 3.0683594 10.01606 3.0683594 9.65625 C 3.0683594 9.29658 3.3607431 9.0039062 3.7207031 9.0039062 z M 5.421875 9.0039062 C 5.781595 9.0039062 6.0742188 9.29658 6.0742188 9.65625 C 6.0742188 10.01606 5.781595 10.308594 5.421875 10.308594 C 5.062295 10.308594 4.7695313 10.01606 4.7695312 9.65625 C 4.7695312 9.29658 5.062295 9.0039062 5.421875 9.0039062 z M 10.554688 9.0039062 C 10.914446 9.0039062 11.207031 9.29658 11.207031 9.65625 C 11.207031 10.01606 10.914446 10.308594 10.554688 10.308594 C 10.194997 10.308594 9.9023438 10.01606 9.9023438 9.65625 C 9.9023438 9.29658 10.194997 9.0039062 10.554688 9.0039062 z M 12.255859 9.0039062 C 12.615429 9.0039062 12.908203 9.29658 12.908203 9.65625 C 12.908203 10.01606 12.615429 10.308594 12.255859 10.308594 C 11.895899 10.308594 11.603516 10.01606 11.603516 9.65625 C 11.603516 9.29658 11.895899 9.0039062 12.255859 9.0039062 z "
       transform="translate(463.00021,-164.99852)"
       id="Fill-1-6" />
  </g>
</svg>
