<?xml version="1.0" encoding="UTF-8" standalone="no"?>
<!-- Created with Inkscape (http://www.inkscape.org/) -->

<svg
   xmlns:osb="http://www.openswatchbook.org/uri/2009/osb"
   xmlns:dc="http://purl.org/dc/elements/1.1/"
   xmlns:cc="http://creativecommons.org/ns#"
   xmlns:rdf="http://www.w3.org/1999/02/22-rdf-syntax-ns#"
   xmlns:svg="http://www.w3.org/2000/svg"
   xmlns="http://www.w3.org/2000/svg"
   xmlns:sodipodi="http://sodipodi.sourceforge.net/DTD/sodipodi-0.dtd"
   xmlns:inkscape="http://www.inkscape.org/namespaces/inkscape"
   sodipodi:docname="bitwig-studio-symbolic.svg"
   height="16"
   id="svg7384"
   version="1.1"
   inkscape:version="0.92.3 (2405546, 2018-03-11)"
   width="16">
  <metadata
     id="metadata90">
    <rdf:RDF>
      <cc:Work
         rdf:about="">
        <dc:format>image/svg+xml</dc:format>
        <dc:type
           rdf:resource="http://purl.org/dc/dcmitype/StillImage" />
        <dc:title>Gnome Symbolic Icon Theme</dc:title>
      </cc:Work>
    </rdf:RDF>
  </metadata>
  <sodipodi:namedview
     inkscape:bbox-paths="true"
     bordercolor="#666666"
     borderopacity="1"
     inkscape:current-layer="layer9"
     inkscape:cx="2.6267741"
     inkscape:cy="1.9585601"
     gridtolerance="10"
     inkscape:guide-bbox="true"
     guidetolerance="10"
     id="namedview88"
     inkscape:object-nodes="false"
     inkscape:object-paths="false"
     objecttolerance="10"
     pagecolor="#555753"
     inkscape:pageopacity="1"
     inkscape:pageshadow="2"
     showborder="false"
     showgrid="false"
     showguides="true"
     inkscape:snap-bbox="true"
     inkscape:snap-bbox-midpoints="false"
     inkscape:snap-global="true"
     inkscape:snap-grids="true"
     inkscape:snap-nodes="true"
     inkscape:snap-others="false"
     inkscape:snap-to-guides="true"
     inkscape:window-height="1945"
     inkscape:window-maximized="1"
     inkscape:window-width="3000"
     inkscape:window-x="0"
     inkscape:window-y="55"
     inkscape:zoom="45.254834">
    <inkscape:grid
       empspacing="2"
       enabled="true"
       id="grid4866"
       originx="-222.00001"
       originy="-381.99852"
       snapvisiblegridlinesonly="true"
       spacingx="1"
       spacingy="1"
       type="xygrid"
       visible="true" />
  </sodipodi:namedview>
  <title
     id="title9167">Gnome Symbolic Icon Theme</title>
  <defs
     id="defs7386">
    <linearGradient
       id="linearGradient7212"
       osb:paint="solid">
      <stop
         id="stop7214"
         offset="0"
         style="stop-color:#000000;stop-opacity:1;" />
    </linearGradient>
  </defs>
  <g
     inkscape:groupmode="layer"
     id="layer9"
     inkscape:label="apps"
     style="display:inline"
     transform="translate(-463.00021,164.99852)">
    <path
       inkscape:connector-curvature="0"
       style="fill:#bebebe;fill-opacity:1;fill-rule:evenodd;stroke:none;stroke-width:0.02947945"
       d="m 471.00008,-164.54528 c -4.1681,0 -7.54661,3.37863 -7.54661,7.54667 0,4.16802 3.37851,7.54686 7.54661,7.54686 4.16819,0 7.54687,-3.37884 7.54687,-7.54686 0,-4.16803 -3.37868,-7.54667 -7.54687,-7.54667 z m -1.90377,5.70151 c 0.26685,0 0.4837,0.21699 0.4837,0.48376 0,0.26682 -0.21685,0.48392 -0.4837,0.48392 -0.26673,0 -0.48377,-0.2171 -0.48377,-0.48392 0,-0.26677 0.21704,-0.48376 0.48377,-0.48376 z m 1.26208,0 c 0.26685,0 0.48388,0.21699 0.48388,0.48376 0,0.26682 -0.21703,0.48392 -0.48388,0.48392 -0.26676,0 -0.48392,-0.2171 -0.48392,-0.48392 0,-0.26677 0.21716,-0.48376 0.48392,-0.48376 z m 1.28288,0 c 0.26666,0 0.48343,0.21699 0.48343,0.48376 0,0.26682 -0.21677,0.48392 -0.48343,0.48392 -0.26709,0 -0.48406,-0.2171 -0.48406,-0.48392 0,-0.26677 0.21697,-0.48376 0.48406,-0.48376 z m 1.26186,0 c 0.26684,0 0.48393,0.21699 0.48393,0.48376 0,0.26682 -0.21709,0.48392 -0.48393,0.48392 -0.26683,0 -0.48365,-0.2171 -0.48365,-0.48392 0,-0.26677 0.21682,-0.48376 0.48365,-0.48376 z m -5.06863,1.28265 c 0.26658,0 0.48343,0.21717 0.48343,0.48398 0,0.26676 -0.21685,0.48383 -0.48343,0.48383 -0.26702,0 -0.48405,-0.21707 -0.48405,-0.48383 0,-0.26681 0.21703,-0.48398 0.48405,-0.48398 z m 1.26181,0 c 0.26685,0 0.4837,0.21717 0.4837,0.48398 0,0.26676 -0.21685,0.48383 -0.4837,0.48383 -0.26673,0 -0.48377,-0.21707 -0.48377,-0.48383 0,-0.26681 0.21704,-0.48398 0.48377,-0.48398 z m 1.26208,0 c 0.26685,0 0.48388,0.21717 0.48388,0.48398 0,0.26676 -0.21703,0.48383 -0.48388,0.48383 -0.26676,0 -0.48392,-0.21707 -0.48392,-0.48383 0,-0.26681 0.21716,-0.48398 0.48392,-0.48398 z m 1.28288,0 c 0.26666,0 0.48343,0.21717 0.48343,0.48398 0,0.26676 -0.21677,0.48383 -0.48343,0.48383 -0.26709,0 -0.48406,-0.21707 -0.48406,-0.48383 0,-0.26681 0.21697,-0.48398 0.48406,-0.48398 z m 1.26186,0 c 0.26684,0 0.48393,0.21717 0.48393,0.48398 0,0.26676 -0.21709,0.48383 -0.48393,0.48383 -0.26683,0 -0.48365,-0.21707 -0.48365,-0.48383 0,-0.26681 0.21682,-0.48398 0.48365,-0.48398 z m 1.26219,0 c 0.26673,0 0.48365,0.21717 0.48365,0.48398 0,0.26676 -0.21692,0.48383 -0.48365,0.48383 -0.26701,0 -0.48403,-0.21707 -0.48403,-0.48383 0,-0.26681 0.21702,-0.48398 0.48403,-0.48398 z m -6.33082,1.28275 c 0.26658,0 0.48343,0.21702 0.48343,0.48382 0,0.26691 -0.21685,0.4841 -0.48343,0.4841 -0.26702,0 -0.48405,-0.21719 -0.48405,-0.4841 0,-0.26679 0.21703,-0.48382 0.48405,-0.48382 z m 1.26181,0 c 0.26685,0 0.4837,0.21702 0.4837,0.48382 0,0.26691 -0.21685,0.4841 -0.4837,0.4841 -0.26673,0 -0.48377,-0.21719 -0.48377,-0.4841 0,-0.26679 0.21704,-0.48382 0.48377,-0.48382 z m 3.80682,0 c 0.26684,0 0.48393,0.21702 0.48393,0.48382 0,0.26691 -0.21709,0.4841 -0.48393,0.4841 -0.26683,0 -0.48365,-0.21719 -0.48365,-0.4841 0,-0.26679 0.21682,-0.48382 0.48365,-0.48382 z m 1.26219,0 c 0.26673,0 0.48365,0.21702 0.48365,0.48382 0,0.26691 -0.21692,0.4841 -0.48365,0.4841 -0.26701,0 -0.48403,-0.21719 -0.48403,-0.4841 0,-0.26679 0.21702,-0.48382 0.48403,-0.48382 z"
       id="Fill-1" />
  </g>
</svg>
