<?xml version="1.0" encoding="UTF-8" standalone="no"?>
<!-- Created with Inkscape (http://www.inkscape.org/) -->

<svg
   xmlns:osb="http://www.openswatchbook.org/uri/2009/osb"
   xmlns:dc="http://purl.org/dc/elements/1.1/"
   xmlns:cc="http://creativecommons.org/ns#"
   xmlns:rdf="http://www.w3.org/1999/02/22-rdf-syntax-ns#"
   xmlns:svg="http://www.w3.org/2000/svg"
   xmlns="http://www.w3.org/2000/svg"
   xmlns:sodipodi="http://sodipodi.sourceforge.net/DTD/sodipodi-0.dtd"
   xmlns:inkscape="http://www.inkscape.org/namespaces/inkscape"
   sodipodi:docname="chrome-symbolic.svg"
   height="17.0666666667"
   id="svg7384"
   version="1.1"
   inkscape:version="0.92+devel unknown"
   width="17.0666666667">
  <sodipodi:namedview
     inkscape:bbox-paths="true"
     bordercolor="#666666"
     borderopacity="1"
     inkscape:current-layer="layer9"
     inkscape:cx="8"
     inkscape:cy="8"
     gridtolerance="10"
     inkscape:guide-bbox="true"
     guidetolerance="10"
     id="namedview88"
     inkscape:object-nodes="false"
     inkscape:object-paths="false"
     objecttolerance="10"
     pagecolor="#555753"
     inkscape:pageopacity="1"
     inkscape:pageshadow="2"
     showborder="false"
     showgrid="false"
     showguides="true"
     inkscape:snap-bbox="true"
     inkscape:snap-bbox-midpoints="false"
     inkscape:snap-global="true"
     inkscape:snap-grids="true"
     inkscape:snap-nodes="true"
     inkscape:snap-others="false"
     inkscape:snap-to-guides="true"
     inkscape:window-height="715"
     inkscape:window-maximized="1"
     inkscape:window-width="1366"
     inkscape:window-x="0"
     inkscape:window-y="0"
     inkscape:zoom="9.9460577"
     inkscape:document-rotation="0"
     inkscape:document-units="px">
    <inkscape:grid
       visible="true"
       type="xygrid"
       spacingy="1.0666667"
       spacingx="1.0666667"
       snapvisiblegridlinesonly="true"
       originy="-407.46509"
       originx="-236.80001"
       id="grid4866"
       enabled="true"
       empspacing="2" />
  </sodipodi:namedview>
  <metadata
     id="metadata90">
    <rdf:RDF>
      <cc:Work
         rdf:about="">
        <dc:format>image/svg+xml</dc:format>
        <dc:type
           rdf:resource="http://purl.org/dc/dcmitype/StillImage" />
        <dc:title>Gnome Symbolic Icon Theme</dc:title>
      </cc:Work>
    </rdf:RDF>
  </metadata>
  <title
     id="title9167">Gnome Symbolic Icon Theme</title>
  <defs
     id="defs7386">
    <linearGradient
       osb:paint="solid"
       id="linearGradient7212">
      <stop
         style="stop-color:#000000;stop-opacity:1;"
         offset="0"
         id="stop7214" />
    </linearGradient>
  </defs>
  <g
     transform="matrix(1.066667,0,0,1.066667,-493.86689,175.99842)"
     style="display:inline"
     inkscape:label="apps"
     id="layer9"
     inkscape:groupmode="layer" />
  <g
     transform="matrix(0.05066851,0,0,0.05066851,0.80689345,0.80356426)"
     id="XMLID_16_"
     style="fill:#bebebe;fill-opacity:1">
    <path
       inkscape:connector-curvature="0"
       id="XMLID_17_"
       d="m 95.506,152.511 c 0,31.426 25.567,56.991 56.994,56.991 31.425,0 56.99,-25.566 56.99,-56.991 0,-31.426 -25.565,-56.993 -56.99,-56.993 -31.427,0 -56.994,25.567 -56.994,56.993 z"
       style="fill:#bebebe;fill-opacity:1" />
    <path
       inkscape:connector-curvature="0"
       id="XMLID_18_"
       d="m 283.733,77.281 c 0.444,-0.781 0.436,-1.74 -0.023,-2.513 C 270.435,52.41 251.543,33.682 229.077,20.609 205.922,7.134 179.441,0.012 152.5,0.012 c -46.625,0 -90.077,20.924 -119.215,57.407 -0.643,0.804 -0.727,1.919 -0.212,2.81 l 42.93,74.355 c 0.45,0.78 1.28,1.25 2.164,1.25 0.112,0 0.226,-0.008 0.339,-0.023 1.006,-0.137 1.829,-0.869 2.083,-1.852 8.465,-32.799 38.036,-55.706 71.911,-55.706 2.102,0 4.273,0.096 6.455,0.282 0.071,0.007 0.143,0.01 0.214,0.01 H 281.56 c 0.899,0 1.729,-0.482 2.173,-1.264 z"
       style="fill:#bebebe;fill-opacity:1" />
    <path
       inkscape:connector-curvature="0"
       id="XMLID_19_"
       d="m 175.035,224.936 c -0.621,-0.803 -1.663,-1.148 -2.646,-0.876 -6.457,1.798 -13.148,2.709 -19.889,2.709 -28.641,0 -55.038,-16.798 -67.251,-42.794 -0.03,-0.064 -0.063,-0.126 -0.098,-0.188 L 23.911,77.719 c -0.446,-0.775 -1.272,-1.25 -2.165,-1.25 -0.004,0 -0.009,0 -0.013,0 -0.898,0.005 -1.725,0.49 -2.165,1.272 C 6.767,100.456 0,126.311 0,152.511 c 0,36.755 13.26,72.258 37.337,99.969 23.838,27.435 56.656,45.49 92.411,50.84 0.124,0.019 0.248,0.027 0.371,0.027 0.883,0 1.713,-0.47 2.164,-1.25 l 42.941,-74.378 c 0.508,-0.88 0.433,-1.98 -0.189,-2.783 z"
       style="fill:#bebebe;fill-opacity:1" />
    <path
       inkscape:connector-curvature="0"
       id="XMLID_20_"
       d="m 292.175,95.226 h -85.974 c -1.016,0 -1.931,0.615 -2.314,1.555 -0.384,0.94 -0.161,2.02 0.564,2.73 14.385,14.102 22.307,32.924 22.307,53 0,15.198 -4.586,29.824 -13.263,42.298 -0.04,0.058 -0.077,0.117 -0.112,0.178 l -61.346,106.252 c -0.449,0.778 -0.446,1.737 0.007,2.513 0.449,0.767 1.271,1.237 2.158,1.237 0.009,0 0.019,0 0.028,0 40.37,-0.45 78.253,-16.511 106.669,-45.222 C 289.338,231.032 305,192.941 305,152.511 c 0,-19.217 -3.532,-37.956 -10.498,-55.698 -0.376,-0.958 -1.299,-1.587 -2.327,-1.587 z"
       style="fill:#bebebe;fill-opacity:1" />
  </g>
</svg>
