<?xml version="1.0" encoding="UTF-8" standalone="no"?>
<!-- Created with Inkscape (http://www.inkscape.org/) -->

<svg
   xmlns:osb="http://www.openswatchbook.org/uri/2009/osb"
   xmlns:dc="http://purl.org/dc/elements/1.1/"
   xmlns:cc="http://creativecommons.org/ns#"
   xmlns:rdf="http://www.w3.org/1999/02/22-rdf-syntax-ns#"
   xmlns:svg="http://www.w3.org/2000/svg"
   xmlns="http://www.w3.org/2000/svg"
   xmlns:sodipodi="http://sodipodi.sourceforge.net/DTD/sodipodi-0.dtd"
   xmlns:inkscape="http://www.inkscape.org/namespaces/inkscape"
   sodipodi:docname="gimp-symbolic.svg"
   height="17.0666666667"
   id="svg7384"
   version="1.1"
   inkscape:version="0.92+devel unknown"
   width="17.0666688">
  <sodipodi:namedview
     inkscape:bbox-paths="true"
     bordercolor="#666666"
     borderopacity="1"
     inkscape:current-layer="layer9"
     inkscape:cx="8.000001"
     inkscape:cy="8"
     gridtolerance="10"
     inkscape:guide-bbox="true"
     guidetolerance="10"
     id="namedview88"
     inkscape:object-nodes="false"
     inkscape:object-paths="false"
     objecttolerance="10"
     pagecolor="#555753"
     inkscape:pageopacity="1"
     inkscape:pageshadow="2"
     showborder="false"
     showgrid="false"
     showguides="true"
     inkscape:snap-bbox="true"
     inkscape:snap-bbox-midpoints="false"
     inkscape:snap-global="true"
     inkscape:snap-grids="true"
     inkscape:snap-nodes="true"
     inkscape:snap-others="false"
     inkscape:snap-to-guides="true"
     inkscape:window-height="715"
     inkscape:window-maximized="1"
     inkscape:window-width="1366"
     inkscape:window-x="0"
     inkscape:window-y="0"
     inkscape:zoom="15.376384"
     inkscape:document-rotation="0"
     inkscape:document-units="px">
    <inkscape:grid
       visible="true"
       type="xygrid"
       spacingy="1.0666667"
       spacingx="1.0666667"
       snapvisiblegridlinesonly="true"
       originy="-386.13333"
       originx="-236.8"
       id="grid4866"
       enabled="true"
       empspacing="2" />
  </sodipodi:namedview>
  <metadata
     id="metadata90">
    <rdf:RDF>
      <cc:Work
         rdf:about="">
        <dc:format>image/svg+xml</dc:format>
        <dc:type
           rdf:resource="http://purl.org/dc/dcmitype/StillImage" />
        <dc:title>Gnome Symbolic Icon Theme</dc:title>
      </cc:Work>
    </rdf:RDF>
  </metadata>
  <title
     id="title9167">Gnome Symbolic Icon Theme</title>
  <defs
     id="defs7386">
    <linearGradient
       osb:paint="solid"
       id="linearGradient7212">
      <stop
         style="stop-color:#000000;stop-opacity:1;"
         offset="0"
         id="stop7214" />
    </linearGradient>
  </defs>
  <g
     transform="matrix(1.066667,0,0,1.066667,-493.86688,154.66667)"
     style="display:inline"
     inkscape:label="apps"
     id="layer9"
     inkscape:groupmode="layer" />
  <g
     transform="matrix(0.01897542,0,0,0.01897542,-0.95436087,-0.95423068)"
     id="g8"
     style="fill:#bebebe;fill-opacity:1;stroke:none">
    <g
       transform="matrix(0.1,0,0,-0.1,0,160)"
       id="g6"
       style="fill:#bebebe;fill-opacity:1;stroke:none">
      <path
         d="m 8596.4,-545 c -459.6,-879.6 -1046,-1513.5 -1703.7,-1838.4 -491.3,-241.7 -851.9,-320.9 -1505.6,-324.9 -610.2,-7.9 -915.3,55.5 -1442.2,293.2 -570.5,257.5 -1319.4,859.8 -1830.5,1473.9 -106.9,126.8 -194.1,210 -194.1,190.2 0,-23.8 79.2,-281.3 174.3,-570.5 178.3,-538.9 289.3,-792.4 523,-1180.7 75.3,-122.8 134.7,-241.7 134.7,-261.5 0,-23.8 -83.2,-51.5 -182.3,-67.3 -103,-11.9 -245.6,-59.4 -317,-107 -146.6,-91.1 -332.8,-368.5 -332.8,-499.2 0,-51.5 -31.7,-91.1 -87.2,-107 -170.4,-43.6 -253.6,-23.8 -352.6,79.2 -51.5,55.5 -182.2,154.5 -293.2,217.9 -404.1,233.8 -792.4,99.1 -998.5,-344.7 -83.2,-186.2 -99.1,-261.5 -83.2,-523 23.8,-558.7 356.6,-1065.8 851.9,-1307.5 126.8,-63.4 372.4,-194.2 546.8,-289.2 538.8,-301.2 1315.4,-558.7 2139.6,-713.2 435.8,-83.2 1442.2,-71.3 1802.8,19.8 340.7,83.2 740.9,257.5 962.8,408.1 146.6,103 162.4,103 380.4,59.4 122.9,-27.7 479.4,-47.5 784.5,-47.5 554.7,0 562.6,0 752.8,-118.9 273.4,-170.4 538.8,-210 915.2,-138.7 384.3,75.3 697.3,178.3 653.8,217.9 -99.1,87.2 -1327.3,633.9 -1426.4,633.9 -67.4,0 -150.6,-31.7 -190.2,-79.2 -87.2,-95.1 -146.6,-99.1 -760.7,-15.9 -320.9,43.6 -487.3,83.2 -487.3,114.9 0,27.7 99.1,257.5 217.9,511.1 202.1,420 297.2,709.2 356.6,1097.5 15.8,118.9 79.2,198.1 340.7,431.9 633.9,574.5 780.6,875.6 812.2,1683.9 11.9,261.5 7.9,665.6 -11.9,903.4 l -31.7,424 z M 3017.7,-3425.5 c 95.1,-83.2 110.9,-126.8 110.9,-293.2 0,-257.5 -122.8,-404.2 -336.8,-404.2 -214,0 -336.8,146.6 -336.8,396.2 0,356.7 305.1,519.1 562.7,301.2 z m 1679.9,-142.6 c 221.9,-122.8 261.5,-606.2 59.4,-780.6 -154.5,-130.7 -412,-126.8 -550.7,11.9 -194.2,194.2 -190.2,495.3 11.9,693.4 118.9,122.8 328.8,154.5 479.4,75.3 z"
         id="path4"
         inkscape:connector-curvature="0"
         style="fill:#bebebe;fill-opacity:1;stroke:none" />
    </g>
  </g>
</svg>
