<?xml version="1.0" encoding="UTF-8" standalone="no"?>
<!-- Created with Inkscape (http://www.inkscape.org/) -->

<svg
   xmlns:osb="http://www.openswatchbook.org/uri/2009/osb"
   xmlns:dc="http://purl.org/dc/elements/1.1/"
   xmlns:cc="http://creativecommons.org/ns#"
   xmlns:rdf="http://www.w3.org/1999/02/22-rdf-syntax-ns#"
   xmlns:svg="http://www.w3.org/2000/svg"
   xmlns="http://www.w3.org/2000/svg"
   xmlns:sodipodi="http://sodipodi.sourceforge.net/DTD/sodipodi-0.dtd"
   xmlns:inkscape="http://www.inkscape.org/namespaces/inkscape"
   sodipodi:docname="inkscape-symbolic.svg"
   height="17.0666666667"
   id="svg7384"
   version="1.1"
   inkscape:version="0.92.3 (2405546, 2018-03-11)"
   width="17.0666688">
  <sodipodi:namedview
     inkscape:bbox-paths="true"
     bordercolor="#666666"
     borderopacity="1"
     inkscape:current-layer="svg7384"
     inkscape:cx="6.7684013"
     inkscape:cy="8.0412026"
     gridtolerance="10"
     inkscape:guide-bbox="true"
     guidetolerance="10"
     id="namedview88"
     inkscape:object-nodes="false"
     inkscape:object-paths="false"
     objecttolerance="10"
     pagecolor="#555753"
     inkscape:pageopacity="1"
     inkscape:pageshadow="2"
     showborder="false"
     showgrid="false"
     showguides="true"
     inkscape:snap-bbox="true"
     inkscape:snap-bbox-midpoints="false"
     inkscape:snap-global="true"
     inkscape:snap-grids="true"
     inkscape:snap-nodes="true"
     inkscape:snap-others="false"
     inkscape:snap-to-guides="true"
     inkscape:window-height="1945"
     inkscape:window-maximized="1"
     inkscape:window-width="3000"
     inkscape:window-x="0"
     inkscape:window-y="55"
     inkscape:zoom="85.092608"
     inkscape:document-rotation="0"
     inkscape:document-units="px">
    <inkscape:grid
       visible="true"
       type="xygrid"
       spacingy="1.0666667"
       spacingx="1.0666667"
       snapvisiblegridlinesonly="true"
       originy="-386.13333"
       originx="-236.8"
       id="grid4866"
       enabled="true"
       empspacing="2" />
  </sodipodi:namedview>
  <metadata
     id="metadata90">
    <rdf:RDF>
      <cc:Work
         rdf:about="">
        <dc:format>image/svg+xml</dc:format>
        <dc:type
           rdf:resource="http://purl.org/dc/dcmitype/StillImage" />
        <dc:title>Gnome Symbolic Icon Theme</dc:title>
      </cc:Work>
    </rdf:RDF>
  </metadata>
  <title
     id="title9167">Gnome Symbolic Icon Theme</title>
  <defs
     id="defs7386">
    <linearGradient
       osb:paint="solid"
       id="linearGradient7212">
      <stop
         style="stop-color:#000000;stop-opacity:1;"
         offset="0"
         id="stop7214" />
    </linearGradient>
  </defs>
  <g
     transform="matrix(1.066667,0,0,1.066667,-493.86688,154.66667)"
     style="display:inline"
     inkscape:label="apps"
     id="layer9"
     inkscape:groupmode="layer" />
  <path
     inkscape:connector-curvature="0"
     id="path2"
     d="M 8.3927132,0.37331931 C 7.8813634,0.37229011 7.3750691,0.55804971 7.0081151,0.93363801 L 0.90328028,7.1807493 C -1.1593875,9.7351125 2.3070139,9.4378857 3.7930073,10.173612 c 0.533049,0.544864 -2.0431486,0.947029 -1.5100996,1.492347 0.533049,0.544865 3.2232736,1.049732 3.7572314,1.594596 0.533049,0.544864 -1.0910599,1.122867 -0.5580109,1.667731 0.5330489,0.544865 1.765899,0.02865 1.9967505,1.286522 0.1645045,0.898868 2.2216869,0.386303 3.2278003,-0.349877 0.533049,-0.545319 -1.0197,-0.494028 -0.486651,-1.038892 1.325579,-1.355571 2.559842,-0.492537 3.013365,-1.850835 0.224036,-0.671196 -1.951395,-1.034732 -1.417437,-1.579597 1.533708,-0.895685 6.834696,-1.4787496 4.319414,-3.9940319 L 9.8073999,0.93363801 C 9.4204507,0.56213941 8.9040631,0.37434181 8.3927132,0.37331931 Z m 0.054851,0.5944898 c 0.3650795,0.00193 0.7288952,0.13854179 0.9908754,0.40393019 l 2.4152374,2.4529573 c 0.229034,0.2340326 0.225871,0.687556 0.09772,0.817978 L 10.752122,3.6833966 10.516297,5.1039409 9.5143264,4.5750424 7.9097013,5.5888164 7.3784951,3.451654 6.5164054,4.9431146 H 5.198552 c -0.5371389,0 -0.6003376,-0.6816591 -0.1122765,-1.1697191 C 5.9387893,2.85317 6.9171933,1.9152402 7.4488789,1.3717393 7.7160851,1.0986255 8.0824851,0.96587771 8.4475642,0.96780911 Z M 5.5470978,10.511684 c 0.1631412,0.101338 2.6307154,0.60262 3.2337469,0.702595 0.2090388,0.04408 0.060894,0.259488 -0.2272161,0.404906 -0.649838,0.172685 -3.8017871,-1.107501 -3.0065308,-1.107501 z m 9.6873952,1.716725 c -0.526974,-0.01332 -1.070607,0.241509 -1.214008,0.746795 0,0.309923 2.283522,0.512993 2.283522,-0.07322 -0.152519,-0.441367 -0.604537,-0.661822 -1.069514,-0.673571 z M 4.6718719,13.571025 C 3.9562132,13.564425 3.1165782,14.087395 3.7338956,14.622076 4.27467,15.089688 5.1099623,14.505746 5.3603544,13.853181 5.2129907,13.657378 4.9519126,13.573623 4.6718719,13.571025 Z m 9.0622841,0.04083 c -0.697098,0.625298 0.07816,1.25969 0.765258,0.855699 0.153143,-0.155416 -0.0041,-0.700283 -0.765258,-0.855699 z"
     style="fill:#bebebe;fill-opacity:1;stroke:#bebebe;stroke-width:0.245;stroke-opacity:1;stroke-miterlimit:4;stroke-dasharray:none" />
</svg>
