<?xml version="1.0" encoding="UTF-8" standalone="no"?>
<!-- Created with Inkscape (http://www.inkscape.org/) -->

<svg
   xmlns:osb="http://www.openswatchbook.org/uri/2009/osb"
   xmlns:dc="http://purl.org/dc/elements/1.1/"
   xmlns:cc="http://creativecommons.org/ns#"
   xmlns:rdf="http://www.w3.org/1999/02/22-rdf-syntax-ns#"
   xmlns:svg="http://www.w3.org/2000/svg"
   xmlns="http://www.w3.org/2000/svg"
   xmlns:sodipodi="http://sodipodi.sourceforge.net/DTD/sodipodi-0.dtd"
   xmlns:inkscape="http://www.inkscape.org/namespaces/inkscape"
   sodipodi:docname="inkscape-symbolic.svg"
   height="17.0666666667"
   id="svg7384"
   version="1.1"
   inkscape:version="0.92.3 (2405546, 2018-03-11)"
   width="17.0666688">
  <sodipodi:namedview
     inkscape:bbox-paths="true"
     bordercolor="#666666"
     borderopacity="1"
     inkscape:current-layer="svg7384"
     inkscape:cx="-11.739629"
     inkscape:cy="-2.3221928"
     gridtolerance="10"
     inkscape:guide-bbox="true"
     guidetolerance="10"
     id="namedview88"
     inkscape:object-nodes="false"
     inkscape:object-paths="false"
     objecttolerance="10"
     pagecolor="#555753"
     inkscape:pageopacity="1"
     inkscape:pageshadow="2"
     showborder="false"
     showgrid="false"
     showguides="true"
     inkscape:snap-bbox="true"
     inkscape:snap-bbox-midpoints="false"
     inkscape:snap-global="true"
     inkscape:snap-grids="true"
     inkscape:snap-nodes="true"
     inkscape:snap-others="false"
     inkscape:snap-to-guides="true"
     inkscape:window-height="1945"
     inkscape:window-maximized="1"
     inkscape:window-width="3000"
     inkscape:window-x="0"
     inkscape:window-y="55"
     inkscape:zoom="21.273152"
     inkscape:document-rotation="0"
     inkscape:document-units="px">
    <inkscape:grid
       visible="true"
       type="xygrid"
       spacingy="1.0666667"
       spacingx="1.0666667"
       snapvisiblegridlinesonly="true"
       originy="-386.13333"
       originx="-236.8"
       id="grid4866"
       enabled="true"
       empspacing="2" />
  </sodipodi:namedview>
  <metadata
     id="metadata90">
    <rdf:RDF>
      <cc:Work
         rdf:about="">
        <dc:format>image/svg+xml</dc:format>
        <dc:type
           rdf:resource="http://purl.org/dc/dcmitype/StillImage" />
        <dc:title>Gnome Symbolic Icon Theme</dc:title>
      </cc:Work>
    </rdf:RDF>
  </metadata>
  <title
     id="title9167">Gnome Symbolic Icon Theme</title>
  <defs
     id="defs7386">
    <linearGradient
       osb:paint="solid"
       id="linearGradient7212">
      <stop
         style="stop-color:#000000;stop-opacity:1;"
         offset="0"
         id="stop7214" />
    </linearGradient>
  </defs>
  <g
     transform="matrix(1.066667,0,0,1.066667,-493.86688,154.66667)"
     style="display:inline"
     inkscape:label="apps"
     id="layer9"
     inkscape:groupmode="layer" />
  <path
     inkscape:connector-curvature="0"
     id="path2"
     d="m 11.982792,1.7658574 c -0.499584,-0.2477954 0.0966,1.3809182 -0.03155,1.5113402 L 10.751966,2.3179196 10.516141,3.7384639 9.5141707,3.2095654 7.9095456,4.2233394 7.3783394,2.086177 6.5162497,3.5776376 H 5.1983963 C 4.7618804,3.0391614 5.2897795,1.4013952 4.892617,1.8010224 L 0.90312465,5.8152723 C -1.1595432,8.3696355 2.3068582,8.0724087 3.7928516,8.808135 4.3259006,9.352999 1.749703,9.755164 2.282752,10.300482 c 0.533049,0.544865 3.2232736,1.049732 3.7572314,1.594596 0.533049,0.544864 -1.0910599,1.122867 -0.5580109,1.667731 0.5330489,0.544865 1.765899,0.02865 1.9967505,1.286522 0.1645045,0.898868 2.2216869,0.386303 3.2278,-0.349877 0.533049,-0.545319 -1.0196997,-0.494028 -0.486651,-1.038892 1.325579,-1.355571 2.559842,-0.492537 3.013365,-1.850835 C 13.457273,10.938531 11.281842,10.574995 11.8158,10.03013 13.349508,9.134445 18.650496,8.5513804 16.135214,6.0360981 M 5.5469421,9.146207 C 5.7100833,9.247545 8.1776575,9.748827 8.780689,9.848802 8.9897278,9.892882 8.841583,10.10829 8.5534729,10.253708 7.9036349,10.426393 4.7516858,9.146207 5.5469421,9.146207 Z m 9.6873949,1.716725 c -0.526974,-0.01332 -1.070607,0.241509 -1.214008,0.746795 0,0.309923 2.283522,0.512993 2.283522,-0.07322 -0.152519,-0.441367 -0.604537,-0.661822 -1.069514,-0.673571 z M 4.6717162,12.205548 c -0.7156587,-0.0066 -1.5552937,0.51637 -0.9379763,1.051051 0.5407744,0.467612 1.3760667,-0.11633 1.6264588,-0.768895 C 5.212835,12.291901 4.9517569,12.208146 4.6717162,12.205548 Z M 13.734,12.246378 c -0.697098,0.625298 0.07816,1.25969 0.765258,0.855699 0.153143,-0.155416 -0.0041,-0.700283 -0.765258,-0.855699 z"
     style="fill:#bebebe;fill-opacity:1;stroke:none;stroke-width:0.245;stroke-miterlimit:4;stroke-dasharray:none;stroke-opacity:1"
     sodipodi:nodetypes="cccccccccsccccccccccccccccccccccccccc" />
</svg>
