<?xml version="1.0" encoding="UTF-8" standalone="no"?>
<!-- Created with Inkscape (http://www.inkscape.org/) -->

<svg
   xmlns:osb="http://www.openswatchbook.org/uri/2009/osb"
   xmlns:dc="http://purl.org/dc/elements/1.1/"
   xmlns:cc="http://creativecommons.org/ns#"
   xmlns:rdf="http://www.w3.org/1999/02/22-rdf-syntax-ns#"
   xmlns:svg="http://www.w3.org/2000/svg"
   xmlns="http://www.w3.org/2000/svg"
   xmlns:sodipodi="http://sodipodi.sourceforge.net/DTD/sodipodi-0.dtd"
   xmlns:inkscape="http://www.inkscape.org/namespaces/inkscape"
   sodipodi:docname="opera-symbolic.svg"
   height="17.0666666667"
   id="svg7384"
   version="1.1"
   inkscape:version="0.92+devel unknown"
   width="17.0666666667">
  <sodipodi:namedview
     inkscape:bbox-paths="true"
     bordercolor="#666666"
     borderopacity="1"
     inkscape:current-layer="layer9"
     inkscape:cx="8"
     inkscape:cy="8"
     gridtolerance="10"
     inkscape:guide-bbox="true"
     guidetolerance="10"
     id="namedview88"
     inkscape:object-nodes="false"
     inkscape:object-paths="false"
     objecttolerance="10"
     pagecolor="#555753"
     inkscape:pageopacity="1"
     inkscape:pageshadow="2"
     showborder="false"
     showgrid="false"
     showguides="true"
     inkscape:snap-bbox="true"
     inkscape:snap-bbox-midpoints="false"
     inkscape:snap-global="true"
     inkscape:snap-grids="true"
     inkscape:snap-nodes="true"
     inkscape:snap-others="false"
     inkscape:snap-to-guides="true"
     inkscape:window-height="715"
     inkscape:window-maximized="1"
     inkscape:window-width="1366"
     inkscape:window-x="0"
     inkscape:window-y="0"
     inkscape:zoom="17.276423"
     inkscape:document-rotation="0"
     inkscape:document-units="px">
    <inkscape:grid
       visible="true"
       type="xygrid"
       spacingy="1.0666667"
       spacingx="1.0666667"
       snapvisiblegridlinesonly="true"
       originy="-407.46509"
       originx="-236.80001"
       id="grid4866"
       enabled="true"
       empspacing="2" />
  </sodipodi:namedview>
  <metadata
     id="metadata90">
    <rdf:RDF>
      <cc:Work
         rdf:about="">
        <dc:format>image/svg+xml</dc:format>
        <dc:type
           rdf:resource="http://purl.org/dc/dcmitype/StillImage" />
        <dc:title>Gnome Symbolic Icon Theme</dc:title>
      </cc:Work>
    </rdf:RDF>
  </metadata>
  <title
     id="title9167">Gnome Symbolic Icon Theme</title>
  <defs
     id="defs7386">
    <linearGradient
       osb:paint="solid"
       id="linearGradient7212">
      <stop
         style="stop-color:#000000;stop-opacity:1;"
         offset="0"
         id="stop7214" />
    </linearGradient>
  </defs>
  <g
     transform="matrix(1.066667,0,0,1.066667,-493.86689,175.99842)"
     style="display:inline"
     inkscape:label="apps"
     id="layer9"
     inkscape:groupmode="layer" />
  <g
     transform="matrix(0.14624256,0,0,0.14624256,-0.29701576,-0.24401623)"
     id="g4291"
     style="fill:#bebebe;fill-opacity:1;stroke:none">
    <path
       id="path20"
       fill="url(#gradiant1)"
       d="M 60.38,9.75 C 32.63,9.75 10.14,32.25 10.14,60 v 0 c 0,26.95 21.22,48.94 47.86,50.19 v 0 c 0.8,0.04 1.59,0.06 2.39,0.06 v 0 c 12.87,0 24.6,-4.84 33.49,-12.79 v 0 c -5.89,3.91 -12.78,6.15 -20.14,6.15 v 0 c -11.97,0 -22.68,-5.94 -29.89,-15.3 v 0 C 38.29,81.76 34.69,72.06 34.45,61.18 v 0 c 0,-0.03 0,-2.34 0,-2.37 v 0 c 0.24,-10.87 3.84,-20.57 9.39,-27.13 v 0 c 7.21,-9.36 17.93,-15.29 29.9,-15.29 v 0 c 7.36,0 14.25,2.25 20.14,6.16 v 0 C 85.03,14.63 73.37,9.8 60.57,9.75 v 0 c -0.06,0 -0.13,0 -0.19,0 z"
       inkscape:connector-curvature="0"
       style="fill:#bebebe;fill-opacity:1;stroke:none" />
    <path
       id="path22"
       fill="url(#gradiant2)"
       d="m 43.84,31.68 c 4.62,-5.44 10.57,-8.72 17.08,-8.72 v 0 c 14.63,0 26.49,16.59 26.49,37.04 v 0 c 0,20.46 -11.86,37.04 -26.49,37.04 v 0 c -6.51,0 -12.46,-3.28 -17.07,-8.72 v 0 c 7.21,9.36 17.92,15.3 29.89,15.3 v 0 c 7.36,0 14.25,-2.25 20.14,-6.15 v 0 C 104.16,88.26 110.63,74.89 110.63,60 v 0 c 0,-14.88 -6.47,-28.26 -16.76,-37.46 v 0 C 87.98,18.63 81.1,16.39 73.74,16.39 v 0 c -11.97,0 -22.68,5.94 -29.89,15.3"
       inkscape:connector-curvature="0"
       style="fill:#bebebe;fill-opacity:1;stroke:none" />
  </g>
</svg>
