<?xml version="1.0" encoding="UTF-8" standalone="no"?>
<!-- Created with Inkscape (http://www.inkscape.org/) -->

<svg
   xmlns:osb="http://www.openswatchbook.org/uri/2009/osb"
   xmlns:dc="http://purl.org/dc/elements/1.1/"
   xmlns:cc="http://creativecommons.org/ns#"
   xmlns:rdf="http://www.w3.org/1999/02/22-rdf-syntax-ns#"
   xmlns:svg="http://www.w3.org/2000/svg"
   xmlns="http://www.w3.org/2000/svg"
   xmlns:sodipodi="http://sodipodi.sourceforge.net/DTD/sodipodi-0.dtd"
   xmlns:inkscape="http://www.inkscape.org/namespaces/inkscape"
   sodipodi:docname="simplenote-symbolic.svg"
   height="16"
   id="svg7384"
   version="1.1"
   inkscape:version="0.92.3 (2405546, 2018-03-11)"
   width="16">
  <metadata
     id="metadata90">
    <rdf:RDF>
      <cc:Work
         rdf:about="">
        <dc:format>image/svg+xml</dc:format>
        <dc:type
           rdf:resource="http://purl.org/dc/dcmitype/StillImage" />
        <dc:title>Gnome Symbolic Icon Theme</dc:title>
      </cc:Work>
    </rdf:RDF>
  </metadata>
  <sodipodi:namedview
     inkscape:bbox-paths="true"
     bordercolor="#666666"
     borderopacity="1"
     inkscape:current-layer="layer9"
     inkscape:cx="2.2518731"
     inkscape:cy="10.210349"
     gridtolerance="10"
     inkscape:guide-bbox="true"
     guidetolerance="10"
     id="namedview88"
     inkscape:object-nodes="false"
     inkscape:object-paths="false"
     objecttolerance="10"
     pagecolor="#555753"
     inkscape:pageopacity="1"
     inkscape:pageshadow="2"
     showborder="false"
     showgrid="false"
     showguides="true"
     inkscape:snap-bbox="true"
     inkscape:snap-bbox-midpoints="false"
     inkscape:snap-global="true"
     inkscape:snap-grids="true"
     inkscape:snap-nodes="true"
     inkscape:snap-others="false"
     inkscape:snap-to-guides="true"
     inkscape:window-height="1873"
     inkscape:window-maximized="1"
     inkscape:window-width="3000"
     inkscape:window-x="0"
     inkscape:window-y="55"
     inkscape:zoom="45.254834">
    <inkscape:grid
       empspacing="2"
       enabled="true"
       id="grid4866"
       originx="-222.00001"
       originy="-381.99852"
       snapvisiblegridlinesonly="true"
       spacingx="1"
       spacingy="1"
       type="xygrid"
       visible="true" />
  </sodipodi:namedview>
  <title
     id="title9167">Gnome Symbolic Icon Theme</title>
  <defs
     id="defs7386">
    <linearGradient
       id="linearGradient7212"
       osb:paint="solid">
      <stop
         id="stop7214"
         offset="0"
         style="stop-color:#000000;stop-opacity:1;" />
    </linearGradient>
  </defs>
  <g
     inkscape:groupmode="layer"
     id="layer9"
     inkscape:label="apps"
     style="display:inline"
     transform="translate(-463.00021,164.99852)">
    <path
       style="fill:#bebebe;fill-opacity:1;stroke-width:0.05870285"
       d="m 469.97116,-150.13061 c -0.99755,-0.14375 -2.23279,-0.65764 -3.05645,-1.27157 -3.01311,-2.24585 -3.73057,-6.27545 -1.67974,-9.43424 0.35085,-0.5404 1.39304,-1.57764 1.94659,-1.93736 2.35669,-1.53146 5.27711,-1.53146 7.6338,0 0.55355,0.35972 1.59574,1.39696 1.94659,1.93736 1.19669,1.8432 1.48743,4.00697 0.81007,6.02875 -0.82684,2.46797 -3.04878,4.32418 -5.60111,4.67918 -0.52204,0.0726 -1.48828,0.0716 -1.99975,-0.002 z m 1.60918,-2.19795 c 0.43576,-0.19875 0.83848,-0.60402 1.04061,-1.04721 0.21678,-0.47533 0.2311,-1.14751 0.0337,-1.58351 -0.12094,-0.26716 -0.72465,-0.91361 -0.86117,-0.92213 -0.016,-8.1e-4 -0.20805,-0.0848 -0.42674,-0.18617 -0.2187,-0.1014 -0.41745,-0.18918 -0.44166,-0.19507 -0.0242,-0.006 -0.0638,-0.0171 -0.0881,-0.0248 -0.0242,-0.008 -0.0705,-0.0191 -0.10272,-0.0252 -0.19639,-0.0369 -0.42865,-0.11786 -0.54301,-0.18921 -0.0727,-0.0454 -0.13208,-0.0689 -0.13208,-0.0522 0,0.0544 -0.72674,-0.34234 -1.03132,-0.56305 -1.05599,-0.76519 -1.66901,-1.86699 -1.66901,-2.99979 v -0.35957 l -0.15179,0.14232 c -0.0835,0.0782 -0.26563,0.31402 -0.40475,0.52388 -1.30591,1.96989 -1.01399,4.61184 0.69601,6.29901 0.74955,0.73955 1.58227,1.15225 2.73697,1.35647 0.34614,0.0612 1.02084,-0.0259 1.34501,-0.17383 z m 3.75421,-2.48584 c 0.37648,-0.7274 0.48698,-1.16074 0.52131,-2.0444 0.0257,-0.66021 0.0111,-0.8586 -0.0972,-1.32738 -0.46065,-1.9935 -2.12323,-3.55024 -4.04957,-3.79178 -0.84059,-0.1054 -1.40312,0.079 -1.87445,0.61445 -0.29108,0.33067 -0.42114,0.69639 -0.42114,1.18415 0,0.892 0.62688,1.47895 2.08396,1.95122 1.4668,0.47542 2.44396,1.25922 2.9676,2.38037 0.25651,0.54924 0.34911,0.94226 0.34911,1.48187 v 0.39008 l 0.14469,-0.19612 c 0.0795,-0.10787 0.24865,-0.39697 0.37571,-0.64246 z"
       id="path899"
       inkscape:connector-curvature="0" />
    <path
       style="fill:#000000"
       d=""
       id="path897"
       inkscape:connector-curvature="0" />
    <path
       style="fill:#000000"
       d=""
       id="path90"
       inkscape:connector-curvature="0" />
    <path
       style="fill:#000000"
       d=""
       id="path88"
       inkscape:connector-curvature="0" />
  </g>
</svg>
