<?xml version="1.0" encoding="UTF-8" standalone="no"?>
<!-- Created with Inkscape (http://www.inkscape.org/) -->

<svg
   xmlns:osb="http://www.openswatchbook.org/uri/2009/osb"
   xmlns:dc="http://purl.org/dc/elements/1.1/"
   xmlns:cc="http://creativecommons.org/ns#"
   xmlns:rdf="http://www.w3.org/1999/02/22-rdf-syntax-ns#"
   xmlns:svg="http://www.w3.org/2000/svg"
   xmlns="http://www.w3.org/2000/svg"
   xmlns:sodipodi="http://sodipodi.sourceforge.net/DTD/sodipodi-0.dtd"
   xmlns:inkscape="http://www.inkscape.org/namespaces/inkscape"
   sodipodi:docname="spotify-symbolic.svg"
   height="17.0666666667"
   id="svg7384"
   version="1.1"
   inkscape:version="0.92.5 (2060ec1f9f, 2020-04-08)"
   width="17.0666666667">
  <sodipodi:namedview
     inkscape:bbox-paths="true"
     bordercolor="#666666"
     borderopacity="1"
     inkscape:current-layer="svg7384"
     inkscape:cx="0.21483313"
     inkscape:cy="11.520024"
     gridtolerance="10"
     inkscape:guide-bbox="true"
     guidetolerance="10"
     id="namedview88"
     inkscape:object-nodes="false"
     inkscape:object-paths="false"
     objecttolerance="10"
     pagecolor="#555753"
     inkscape:pageopacity="1"
     inkscape:pageshadow="2"
     showborder="false"
     showgrid="false"
     showguides="true"
     inkscape:snap-bbox="true"
     inkscape:snap-bbox-midpoints="false"
     inkscape:snap-global="true"
     inkscape:snap-grids="true"
     inkscape:snap-nodes="true"
     inkscape:snap-others="false"
     inkscape:snap-to-guides="true"
     inkscape:window-height="1872"
     inkscape:window-maximized="1"
     inkscape:window-width="3000"
     inkscape:window-x="0"
     inkscape:window-y="54"
     inkscape:zoom="56.263399"
     inkscape:document-rotation="0"
     inkscape:document-units="px">
    <inkscape:grid
       visible="true"
       type="xygrid"
       spacingy="1.0666667"
       spacingx="1.0666667"
       snapvisiblegridlinesonly="true"
       originy="-407.46509"
       originx="-236.80001"
       id="grid4866"
       enabled="true"
       empspacing="2" />
  </sodipodi:namedview>
  <metadata
     id="metadata90">
    <rdf:RDF>
      <cc:Work
         rdf:about="">
        <dc:format>image/svg+xml</dc:format>
        <dc:type
           rdf:resource="http://purl.org/dc/dcmitype/StillImage" />
        <dc:title>Gnome Symbolic Icon Theme</dc:title>
      </cc:Work>
    </rdf:RDF>
  </metadata>
  <title
     id="title9167">Gnome Symbolic Icon Theme</title>
  <defs
     id="defs7386">
    <linearGradient
       osb:paint="solid"
       id="linearGradient7212">
      <stop
         style="stop-color:#000000;stop-opacity:1;"
         offset="0"
         id="stop7214" />
    </linearGradient>
  </defs>
  <g
     transform="matrix(1.066667,0,0,1.066667,-493.86689,175.99842)"
     style="display:inline"
     inkscape:label="apps"
     id="layer9"
     inkscape:groupmode="layer" />
  <path
     inkscape:connector-curvature="0"
     d="m 8.514774,0.93942384 c -4.326495,0 -7.833978,3.50739016 -7.833978,7.83388516 0,4.326679 3.507483,7.833788 7.833978,7.833788 4.326966,0 7.834075,-3.507109 7.834075,-7.833788 0,-4.326214 -3.507109,-7.83351116 -7.834168,-7.83351116 z M 12.107389,12.238132 c -0.140321,0.230127 -0.441546,0.303095 -0.671673,0.161837 -1.83934,-1.123509 -4.154838,-1.37796 -6.881758,-0.754931 -0.262776,0.05987 -0.52471,-0.104773 -0.584581,-0.367643 -0.06015,-0.262869 0.103838,-0.524804 0.367269,-0.584674 2.984177,-0.682058 5.543928,-0.388224 7.608906,0.873737 0.230127,0.141257 0.303095,0.441546 0.161837,0.671674 z m 0.958866,-2.133359 c -0.176806,0.287659 -0.552868,0.378401 -0.84006,0.201595 C 10.120433,9.011763 6.910522,8.636916 4.41981,9.39297 4.096789,9.49054 3.75562,9.3085 3.657582,8.986037 3.560292,8.663016 3.742432,8.322502 4.06489,8.224277 c 2.845071,-0.86326 6.382025,-0.445101 8.800237,1.040907 0.287192,0.176805 0.377933,0.552867 0.201128,0.839682 z m 0.08232,-2.221198 C 10.623718,6.38391 6.458029,6.24602 4.047394,6.977658 3.660293,7.09506 3.250928,6.876533 3.133619,6.489432 3.01631,6.102143 3.23465,5.693059 3.622032,5.575376 6.389271,4.735316 10.98949,4.897621 13.896397,6.623299 14.24533,6.829946 14.359458,7.27963 14.152718,7.627348 13.946912,7.975533 13.496012,8.090316 13.148949,7.883575 Z"
     id="path2"
     style="fill:#bebebe;fill-opacity:1;stroke-width:0.09354786" />
</svg>
