<?xml version="1.0" encoding="UTF-8" standalone="no"?>
<!-- Created with Inkscape (http://www.inkscape.org/) -->

<svg
   xmlns:osb="http://www.openswatchbook.org/uri/2009/osb"
   xmlns:dc="http://purl.org/dc/elements/1.1/"
   xmlns:cc="http://creativecommons.org/ns#"
   xmlns:rdf="http://www.w3.org/1999/02/22-rdf-syntax-ns#"
   xmlns:svg="http://www.w3.org/2000/svg"
   xmlns="http://www.w3.org/2000/svg"
   xmlns:sodipodi="http://sodipodi.sourceforge.net/DTD/sodipodi-0.dtd"
   xmlns:inkscape="http://www.inkscape.org/namespaces/inkscape"
   sodipodi:docname="thunderbird.symbolic.svg"
   height="16"
   id="svg7384"
   version="1.1"
   inkscape:version="0.92.3 (2405546, 2018-03-11)"
   width="16">
  <metadata
     id="metadata90">
    <rdf:RDF>
      <cc:Work
         rdf:about="">
        <dc:format>image/svg+xml</dc:format>
        <dc:type
           rdf:resource="http://purl.org/dc/dcmitype/StillImage" />
        <dc:title>Gnome Symbolic Icon Theme</dc:title>
      </cc:Work>
    </rdf:RDF>
  </metadata>
  <sodipodi:namedview
     inkscape:bbox-paths="true"
     bordercolor="#666666"
     borderopacity="1"
     inkscape:current-layer="layer9"
     inkscape:cx="7.8089485"
     inkscape:cy="6.0799357"
     gridtolerance="10"
     inkscape:guide-bbox="true"
     guidetolerance="10"
     id="namedview88"
     inkscape:object-nodes="false"
     inkscape:object-paths="false"
     objecttolerance="10"
     pagecolor="#555753"
     inkscape:pageopacity="1"
     inkscape:pageshadow="2"
     showborder="false"
     showgrid="false"
     showguides="true"
     inkscape:snap-bbox="true"
     inkscape:snap-bbox-midpoints="false"
     inkscape:snap-global="true"
     inkscape:snap-grids="true"
     inkscape:snap-nodes="true"
     inkscape:snap-others="false"
     inkscape:snap-to-guides="true"
     inkscape:window-height="1873"
     inkscape:window-maximized="1"
     inkscape:window-width="3000"
     inkscape:window-x="0"
     inkscape:window-y="55"
     inkscape:zoom="64">
    <inkscape:grid
       empspacing="2"
       enabled="true"
       id="grid4866"
       originx="-222.00001"
       originy="-381.99852"
       snapvisiblegridlinesonly="true"
       spacingx="1"
       spacingy="1"
       type="xygrid"
       visible="true" />
  </sodipodi:namedview>
  <title
     id="title9167">Gnome Symbolic Icon Theme</title>
  <defs
     id="defs7386">
    <linearGradient
       id="linearGradient7212"
       osb:paint="solid">
      <stop
         id="stop7214"
         offset="0"
         style="stop-color:#000000;stop-opacity:1;" />
    </linearGradient>
  </defs>
  <g
     inkscape:groupmode="layer"
     id="layer9"
     inkscape:label="apps"
     style="display:inline"
     transform="translate(-463.00021,164.99852)">
    <polygon
       style="fill:none;stroke:#bebebe;stroke-width:14.67443275;stroke-miterlimit:4;stroke-dasharray:none;stroke-opacity:1"
       id="polygon17"
       points="172.911,219.015 201.939,95.591 22.687,62.276 8.546,142.68 16.387,166.974 "
       class="st2"
       transform="matrix(0.0542006,0,0,0.05357106,463.81353,-162.93065)" />
    <path
       inkscape:connector-curvature="0"
       style="fill:none;stroke:#bebebe;stroke-width:0.691;stroke-miterlimit:4;stroke-dasharray:none;stroke-opacity:1"
       id="path23"
       d="m 465.17799,-159.41708 c 0,0 0.0412,0.21302 0.23192,0.4488 0.18962,0.23794 2.73643,4.09412 2.86423,4.06015 1.66834,-0.44294 7.72141,-2.79948 7.72141,-2.79948 z"
       class="st4" />
    <g
       id="g1111"
       transform="matrix(0.06078319,0,0,0.06078319,463.49472,-164.37787)"
       style="fill:#bebebe;fill-opacity:1;stroke:#bebebe;stroke-opacity:1;stroke-width:3.29038341;stroke-miterlimit:4;stroke-dasharray:none">
      <path
         class="st6"
         d="m 28.416,130.828 c -4.707,-0.081 -12.269,-3.964 -14.722,-8.665 -3.066,51.098 17.782,80.939 50.88,96.853 C 53.759,217.776 0,189.407 0,121.14 0,63.093 46.06,11.208 118.142,8.831 118.584,12.085 82.406,20.245 81.249,24.082 79.453,30.054 75.325,36.555 71.843,41.766 67.125,48.827 78.4,54.865 70.114,56.767 57.646,59.628 41.016,58.044 28.753,73.986 10.319,97.951 22.62,125.365 28.416,130.828 Z"
         id="path51"
         style="fill:#bebebe;fill-opacity:1;stroke:#bebebe;stroke-opacity:1;stroke-width:3.29038341;stroke-miterlimit:4;stroke-dasharray:none"
         inkscape:connector-curvature="0" />
      <path
         class="st9"
         d="M 139.379,8.63 C 125.07,6.776 113.109,7.141 102.94,9.1 c 3.198,-3.065 6.898,-4.575 6.898,-4.575 -4.795,0.424 -10.781,3.554 -15.917,6.868 -2.588,0.826 -5.054,1.758 -7.39,2.799 1.43,-1.885 3.094,-3.899 4.72,-5.445 6.039,-5.743 15.006,-8.715 15.006,-8.715 -7.654,-0.562 -33.268,5.995 -48.681,37.213 -2.526,3.077 -4.883,6.235 -7.129,9.398 -5.798,8.164 -5.162,15.658 -3.162,24.715 0.852,3.867 1.009,10.04 0.168,14.029 -0.168,0.799 -2.363,2.863 -2.926,8.428 -0.602,5.905 1.505,8.804 3.582,11.203 C 55.489,94.226 62.77,92.087 62.77,92.087 73.1,87.855 77.4,83.335 88.458,77.694 c 15.108,-7.709 67.939,17.45 101.512,6.448 10.332,-3.384 -3.977,-47.359 1.663,-48.709 C 175.934,18.073 153.139,10.413 139.379,8.63 Z"
         id="path79"
         style="fill:#bebebe;fill-opacity:1;stroke:#bebebe;stroke-opacity:1;stroke-width:3.29038341;stroke-miterlimit:4;stroke-dasharray:none"
         inkscape:connector-curvature="0" />
      <path
         class="st10"
         d="M 244.176,103.288 C 235.9,60.051 196.08,20.716 164.059,18.536 149.848,17.568 154.212,24.855 145.32,27.63 107,39.589 106.414,46.571 106.414,46.571 c 81.252,3.819 82.484,84.064 60.724,104.366 6.123,-1.428 12.762,-8.914 18.859,-20.666 -0.732,4.931 -1.36,10.98 -2.274,17.729 -2.788,20.595 0.823,63.614 -58.356,92.405 0,0 32.372,-2.646 48.425,-20.717 -6.528,15.012 -24.441,23.121 -24.441,23.121 13.182,-1.928 47.81,-12.146 69.868,-39.732 24.966,-31.225 32.474,-60.519 24.957,-99.789 z"
         id="path86"
         style="fill:#bebebe;fill-opacity:1;stroke:#bebebe;stroke-opacity:1;stroke-width:3.29038341;stroke-miterlimit:4;stroke-dasharray:none"
         inkscape:connector-curvature="0" />
    </g>
  </g>
</svg>
